<svg xmlns="http://www.w3.org/2000/svg" width="28" height="33" viewBox="0 0 28 33"><defs><mask id="9lykb" width="2" height="2" x="-1" y="-1"><path fill="#fff" d="M0 0h28v32H0z"/><path d="M.294 9.213a.479.479 0 0 1 .283-.117c-.113-.59.003-.98.282-1.21.35-.287.762-.028 1.36.651l.012-.01c0 .003.002.01.016.027.186.233.449.277.681.087.16-.132.218-.38.113-.512l-.233-.289c-.338-.422-.018-.943.404-1.29l4.952-4.068c.42-.345.643-.268.98.153l.289.359c.073.09.434-.108.564-.214.231-.19.38-.52.194-.754-.024-.03.042-.073.036-.068l.017-.014c-.535-.73-.702-1.191-.352-1.48.278-.228.705-.23 1.253 0a.508.508 0 0 1 .158-.27c.737-.607 2.59.465 4.146 2.403 1.555 1.936 2.216 3.993 1.478 4.6a.484.484 0 0 1-.284.115c.112.59.053 1.052-.227 1.281-.362.298-.771.033-1.363-.65l-.016.013c-.04.032-.605-.07-.807.096-.129.106-.403.414-.33.504l.302.377c.202.251.38.473.303.767-.118-.468-1.537-2.39-2.848-4.022-1.45-1.804-2.536-2.89-2.536-2.89-.11.222 1.16 1.739 2.259 3.108 1.063 1.324 2.946 3.867 3.253 3.876-.06.156-.101.355-.239.467l-.951.783c.105-.087.246-.085.33.02.085.105.057.247-.048.333l-.112.092c.072-.06.372.232.535.435.742.924 1.115 2.107 1.116 3a5.32 5.32 0 0 1-.534-1.422c-.217-.958-.834-2.123-1.279-1.757-.444.365.627 1.01.887 1.827.213.666.727 1.204.908 1.38 0 .077-.005.15-.012.222.51-.269.96-.33 1.133-.116.127.159.078.434-.101.747.438.041.86.252 1.155.62.506.629 1.1 2.482 2.54 4.276 1.486 1.85 6.148 6.543 7.057 7.675 1.042 1.297 1.303 2.829.583 3.42l-.031.022c-.72.591-2.15.017-3.192-1.281-.909-1.132-4.498-6.713-5.983-8.563-1.442-1.794-3.105-2.754-3.61-3.383a1.72 1.72 0 0 1-.364-1.27c-.34.112-.616.104-.743-.054-.172-.215-.02-.647.345-1.098-.897-.096-2.103-.72-2.923-1.741-.162-.203-.383-.56-.311-.62l-.112.093a.245.245 0 0 1-.346-.037.252.252 0 0 1 .035-.35l-1.005.825c-.42.346-1.157.242-1.495-.179l-.246-.306c-.104-.13-.326-.083-.485.047-.202.166-.043.605-.084.638l-.016.013c.542.726.712 1.184.349 1.482-.278.228-.734.196-1.283-.037a.478.478 0 0 1-.173.255c-.737.606-2.596-.475-4.152-2.412-1.556-1.937-2.22-4-1.483-4.605zm1.943-.69zm0 0l-.006.004c0-.002.003-.002.005-.004zM17.063 5.79s-.944-1.733-2.112-3.253C13.783 1.015 12.658.303 12.658.303c2.095 1.92 4.406 5.487 4.406 5.487zm-4.82-3.748c.38-.26.84.498 1.95 1.553 1.338 1.69 2.666 3.543 2.647 3.46-.02-.09-1.314-2.458-2.566-4.016C13.025 1.48 11.547.134 11.547.134c-.076.006-.085.063-.042.16-.12-.014-.141.128-.233.251-.219.291-.207 1.384-.207 1.384.18.617.8.372 1.18.113zm-.184 1.683c.088-.073-.093-.445-.403-.83-.31-.387-.633-.642-.721-.57-.088.072.093.444.403.83.31.387.633.64.72.57zm-.776.346c.14-.115.091-.411-.11-.662-.2-.25-.477-.36-.618-.244-.14.115-.09.41.11.662.202.25.478.36.618.244zm4.81 11.275c-.15-.188-.362-.267-.473-.176-.11.09-.077.316.074.504.15.188.362.266.472.176.11-.09.077-.316-.074-.504zm1.307 3.232c1.382 1.556 2.767 2.82 5.851 6.99s3.729 4.987 4.13 4.658c.4-.329-1.018-2.12-1.977-3.285-.96-1.166-1.674-1.555-4.075-4.386-2.402-2.831-3.847-4.52-4.094-5.373-.245-.854-.494-1.072-.83-1.033-.443.05-.387.872.995 2.429zm-8.068-5.012s.209.145 2.354-1.617c2.101-1.726 1.816-1.808 1.816-1.808-.278.063-.645.028-.836-.21l-4.75-5.915c-.248-.308-.1-.845.164-1.127-.029.019-.003-.011-.03.011 0 0-.173-.174-2.324 1.593C3.47 6.348 3.643 6.522 3.643 6.522c-.027.022-.13.116-.154.14.329-.205.66-.062.908.246l4.75 5.915c.19.237.305.48.186.743zm-.205.644c.11-.223-1.144-1.753-2.244-3.122-1.1-1.368-3.015-3.985-3.223-3.816-.206.17 1.451 2.266 2.9 4.07 1.45 1.806 2.567 2.868 2.567 2.868zM4.316 9.797c.131-.108.075-.4-.126-.648-.201-.251-.471-.367-.602-.259-.132.108-.075.398.126.649.2.25.47.366.602.258zM2.98 11.184c-.09-.243-1.093-1.372-.891-1.59.113-.123.23-.03.36.136l.087.116c.077.106.159.227.249.338.027.032.051.057.073.08.267.34.558.704.835 1.05a21.844 21.844 0 0 0 1.61 1.816c.06-.134-.784-1.054-1.477-1.918-.324-.404-.813-.935-1.203-1.42l-.001-.002s-.51-.914-.781-.982c-.018-.01-.006-.035-.014-.028-.252.022-.635.469.042 1.311.677.843 1.2 1.336 1.111 1.093z"/></mask><filter id="9lyka" width="48" height="53" x="-10" y="-10" filterUnits="userSpaceOnUse"><feOffset dy="1" in="SourceGraphic" result="FeOffset1023Out"/><feGaussianBlur in="FeOffset1023Out" result="FeGaussianBlur1024Out" stdDeviation="0 0"/></filter><linearGradient id="9lykc" x1="14.01" x2="13.99" y1="32.03" y2=".02" gradientUnits="userSpaceOnUse"><stop offset="0" stop-opacity=".17"/><stop offset="1" stop-color="#fff" stop-opacity=".17"/></linearGradient><filter id="9lykd" width="200%" height="200%" x="-50%" y="-50%"><feGaussianBlur in="SourceGraphic" result="FeGaussianBlur1045Out" stdDeviation="0 0"/></filter><mask id="9lyke"><path fill="#fff" d="M.294 9.213a.479.479 0 0 1 .283-.117c-.113-.59.003-.98.282-1.21.35-.287.762-.028 1.36.651l.012-.01c0 .003.002.01.016.027.186.233.449.277.681.087.16-.132.218-.38.113-.512l-.233-.289c-.338-.422-.018-.943.404-1.29l4.952-4.068c.42-.345.643-.268.98.153l.289.359c.073.09.434-.108.564-.214.231-.19.38-.52.194-.754-.024-.03.042-.073.036-.068l.017-.014c-.535-.73-.702-1.191-.352-1.48.278-.228.705-.23 1.253 0a.508.508 0 0 1 .158-.27c.737-.607 2.59.465 4.146 2.403 1.555 1.936 2.216 3.993 1.478 4.6a.484.484 0 0 1-.284.115c.112.59.053 1.052-.227 1.281-.362.298-.771.033-1.363-.65l-.016.013c-.04.032-.605-.07-.807.096-.129.106-.403.414-.33.504l.302.377c.202.251.38.473.303.767-.118-.468-1.537-2.39-2.848-4.022-1.45-1.804-2.536-2.89-2.536-2.89-.11.222 1.16 1.739 2.259 3.108 1.063 1.324 2.946 3.867 3.253 3.876-.06.156-.101.355-.239.467l-.951.783c.105-.087.246-.085.33.02.085.105.057.247-.048.333l-.112.092c.072-.06.372.232.535.435.742.924 1.115 2.107 1.116 3a5.32 5.32 0 0 1-.534-1.422c-.217-.958-.834-2.123-1.279-1.757-.444.365.627 1.01.887 1.827.213.666.727 1.204.908 1.38 0 .077-.005.15-.012.222.51-.269.96-.33 1.133-.116.127.159.078.434-.101.747.438.041.86.252 1.155.62.506.629 1.1 2.482 2.54 4.276 1.486 1.85 6.148 6.543 7.057 7.675 1.042 1.297 1.303 2.829.583 3.42l-.031.022c-.72.591-2.15.017-3.192-1.281-.909-1.132-4.498-6.713-5.983-8.563-1.442-1.794-3.105-2.754-3.61-3.383a1.72 1.72 0 0 1-.364-1.27c-.34.112-.616.104-.743-.054-.172-.215-.02-.647.345-1.098-.897-.096-2.103-.72-2.923-1.741-.162-.203-.383-.56-.311-.62l-.112.093a.245.245 0 0 1-.346-.037.252.252 0 0 1 .035-.35l-1.005.825c-.42.346-1.157.242-1.495-.179l-.246-.306c-.104-.13-.326-.083-.485.047-.202.166-.043.605-.084.638l-.016.013c.542.726.712 1.184.349 1.482-.278.228-.734.196-1.283-.037a.478.478 0 0 1-.173.255c-.737.606-2.596-.475-4.152-2.412-1.556-1.937-2.22-4-1.483-4.605zm1.943-.69zm0 0l-.006.004c0-.002.003-.002.005-.004zM17.063 5.79s-.944-1.733-2.112-3.253C13.783 1.015 12.658.303 12.658.303c2.095 1.92 4.406 5.487 4.406 5.487zm-4.82-3.748c.38-.26.84.498 1.95 1.553 1.338 1.69 2.666 3.543 2.647 3.46-.02-.09-1.314-2.458-2.566-4.016C13.025 1.48 11.547.134 11.547.134c-.076.006-.085.063-.042.16-.12-.014-.141.128-.233.251-.219.291-.207 1.384-.207 1.384.18.617.8.372 1.18.113zm-.184 1.683c.088-.073-.093-.445-.403-.83-.31-.387-.633-.642-.721-.57-.088.072.093.444.403.83.31.387.633.64.72.57zm-.776.346c.14-.115.091-.411-.11-.662-.2-.25-.477-.36-.618-.244-.14.115-.09.41.11.662.202.25.478.36.618.244zm4.81 11.275c-.15-.188-.362-.267-.473-.176-.11.09-.077.316.074.504.15.188.362.266.472.176.11-.09.077-.316-.074-.504zm1.307 3.232c1.382 1.556 2.767 2.82 5.851 6.99s3.729 4.987 4.13 4.658c.4-.329-1.018-2.12-1.977-3.285-.96-1.166-1.674-1.555-4.075-4.386-2.402-2.831-3.847-4.52-4.094-5.373-.245-.854-.494-1.072-.83-1.033-.443.05-.387.872.995 2.429zm-8.068-5.012s.209.145 2.354-1.617c2.101-1.726 1.816-1.808 1.816-1.808-.278.063-.645.028-.836-.21l-4.75-5.915c-.248-.308-.1-.845.164-1.127-.029.019-.003-.011-.03.011 0 0-.173-.174-2.324 1.593C3.47 6.348 3.643 6.522 3.643 6.522c-.027.022-.13.116-.154.14.329-.205.66-.062.908.246l4.75 5.915c.19.237.305.48.186.743zm-.205.644c.11-.223-1.144-1.753-2.244-3.122-1.1-1.368-3.015-3.985-3.223-3.816-.206.17 1.451 2.266 2.9 4.07 1.45 1.806 2.567 2.868 2.567 2.868zM4.316 9.797c.131-.108.075-.4-.126-.648-.201-.251-.471-.367-.602-.259-.132.108-.075.398.126.649.2.25.47.366.602.258zM2.98 11.184c-.09-.243-1.093-1.372-.891-1.59.113-.123.23-.03.36.136l.087.116c.077.106.159.227.249.338.027.032.051.057.073.08.267.34.558.704.835 1.05a21.844 21.844 0 0 0 1.61 1.816c.06-.134-.784-1.054-1.477-1.918-.324-.404-.813-.935-1.203-1.42l-.001-.002s-.51-.914-.781-.982c-.018-.01-.006-.035-.014-.028-.252.022-.635.469.042 1.311.677.843 1.2 1.336 1.111 1.093z"/></mask></defs><g><g><g filter="url(#9lyka)"><path fill="none" d="M.294 9.213a.479.479 0 0 1 .283-.117c-.113-.59.003-.98.282-1.21.35-.287.762-.028 1.36.651l.012-.01c0 .003.002.01.016.027.186.233.449.277.681.087.16-.132.218-.38.113-.512l-.233-.289c-.338-.422-.018-.943.404-1.29l4.952-4.068c.42-.345.643-.268.98.153l.289.359c.073.09.434-.108.564-.214.231-.19.38-.52.194-.754-.024-.03.042-.073.036-.068l.017-.014c-.535-.73-.702-1.191-.352-1.48.278-.228.705-.23 1.253 0a.508.508 0 0 1 .158-.27c.737-.607 2.59.465 4.146 2.403 1.555 1.936 2.216 3.993 1.478 4.6a.484.484 0 0 1-.284.115c.112.59.053 1.052-.227 1.281-.362.298-.771.033-1.363-.65l-.016.013c-.04.032-.605-.07-.807.096-.129.106-.403.414-.33.504l.302.377c.202.251.38.473.303.767-.118-.468-1.537-2.39-2.848-4.022-1.45-1.804-2.536-2.89-2.536-2.89-.11.222 1.16 1.739 2.259 3.108 1.063 1.324 2.946 3.867 3.253 3.876-.06.156-.101.355-.239.467l-.951.783c.105-.087.246-.085.33.02.085.105.057.247-.048.333l-.112.092c.072-.06.372.232.535.435.742.924 1.115 2.107 1.116 3a5.32 5.32 0 0 1-.534-1.422c-.217-.958-.834-2.123-1.279-1.757-.444.365.627 1.01.887 1.827.213.666.727 1.204.908 1.38 0 .077-.005.15-.012.222.51-.269.96-.33 1.133-.116.127.159.078.434-.101.747.438.041.86.252 1.155.62.506.629 1.1 2.482 2.54 4.276 1.486 1.85 6.148 6.543 7.057 7.675 1.042 1.297 1.303 2.829.583 3.42l-.031.022c-.72.591-2.15.017-3.192-1.281-.909-1.132-4.498-6.713-5.983-8.563-1.442-1.794-3.105-2.754-3.61-3.383a1.72 1.72 0 0 1-.364-1.27c-.34.112-.616.104-.743-.054-.172-.215-.02-.647.345-1.098-.897-.096-2.103-.72-2.923-1.741-.162-.203-.383-.56-.311-.62l-.112.093a.245.245 0 0 1-.346-.037.252.252 0 0 1 .035-.35l-1.005.825c-.42.346-1.157.242-1.495-.179l-.246-.306c-.104-.13-.326-.083-.485.047-.202.166-.043.605-.084.638l-.016.013c.542.726.712 1.184.349 1.482-.278.228-.734.196-1.283-.037a.478.478 0 0 1-.173.255c-.737.606-2.596-.475-4.152-2.412-1.556-1.937-2.22-4-1.483-4.605zm1.943-.69zm0 0l-.006.004c0-.002.003-.002.005-.004zM17.063 5.79s-.944-1.733-2.112-3.253C13.783 1.015 12.658.303 12.658.303c2.095 1.92 4.406 5.487 4.406 5.487zm-4.82-3.748c.38-.26.84.498 1.95 1.553 1.338 1.69 2.666 3.543 2.647 3.46-.02-.09-1.314-2.458-2.566-4.016C13.025 1.48 11.547.134 11.547.134c-.076.006-.085.063-.042.16-.12-.014-.141.128-.233.251-.219.291-.207 1.384-.207 1.384.18.617.8.372 1.18.113zm-.184 1.683c.088-.073-.093-.445-.403-.83-.31-.387-.633-.642-.721-.57-.088.072.093.444.403.83.31.387.633.64.72.57zm-.776.346c.14-.115.091-.411-.11-.662-.2-.25-.477-.36-.618-.244-.14.115-.09.41.11.662.202.25.478.36.618.244zm4.81 11.275c-.15-.188-.362-.267-.473-.176-.11.09-.077.316.074.504.15.188.362.266.472.176.11-.09.077-.316-.074-.504zm1.307 3.232c1.382 1.556 2.767 2.82 5.851 6.99s3.729 4.987 4.13 4.658c.4-.329-1.018-2.12-1.977-3.285-.96-1.166-1.674-1.555-4.075-4.386-2.402-2.831-3.847-4.52-4.094-5.373-.245-.854-.494-1.072-.83-1.033-.443.05-.387.872.995 2.429zm-8.068-5.012s.209.145 2.354-1.617c2.101-1.726 1.816-1.808 1.816-1.808-.278.063-.645.028-.836-.21l-4.75-5.915c-.248-.308-.1-.845.164-1.127-.029.019-.003-.011-.03.011 0 0-.173-.174-2.324 1.593C3.47 6.348 3.643 6.522 3.643 6.522c-.027.022-.13.116-.154.14.329-.205.66-.062.908.246l4.75 5.915c.19.237.305.48.186.743zm-.205.644c.11-.223-1.144-1.753-2.244-3.122-1.1-1.368-3.015-3.985-3.223-3.816-.206.17 1.451 2.266 2.9 4.07 1.45 1.806 2.567 2.868 2.567 2.868zM4.316 9.797c.131-.108.075-.4-.126-.648-.201-.251-.471-.367-.602-.259-.132.108-.075.398.126.649.2.25.47.366.602.258zM2.98 11.184c-.09-.243-1.093-1.372-.891-1.59.113-.123.23-.03.36.136l.087.116c.077.106.159.227.249.338.027.032.051.057.073.08.267.34.558.704.835 1.05a21.844 21.844 0 0 0 1.61 1.816c.06-.134-.784-1.054-1.477-1.918-.324-.404-.813-.935-1.203-1.42l-.001-.002s-.51-.914-.781-.982c-.018-.01-.006-.035-.014-.028-.252.022-.635.469.042 1.311.677.843 1.2 1.336 1.111 1.093z" mask="url(&quot;#9lykb&quot;)"/><path fill="#6f511c" d="M.294 9.213a.479.479 0 0 1 .283-.117c-.113-.59.003-.98.282-1.21.35-.287.762-.028 1.36.651l.012-.01c0 .003.002.01.016.027.186.233.449.277.681.087.16-.132.218-.38.113-.512l-.233-.289c-.338-.422-.018-.943.404-1.29l4.952-4.068c.42-.345.643-.268.98.153l.289.359c.073.09.434-.108.564-.214.231-.19.38-.52.194-.754-.024-.03.042-.073.036-.068l.017-.014c-.535-.73-.702-1.191-.352-1.48.278-.228.705-.23 1.253 0a.508.508 0 0 1 .158-.27c.737-.607 2.59.465 4.146 2.403 1.555 1.936 2.216 3.993 1.478 4.6a.484.484 0 0 1-.284.115c.112.59.053 1.052-.227 1.281-.362.298-.771.033-1.363-.65l-.016.013c-.04.032-.605-.07-.807.096-.129.106-.403.414-.33.504l.302.377c.202.251.38.473.303.767-.118-.468-1.537-2.39-2.848-4.022-1.45-1.804-2.536-2.89-2.536-2.89-.11.222 1.16 1.739 2.259 3.108 1.063 1.324 2.946 3.867 3.253 3.876-.06.156-.101.355-.239.467l-.951.783c.105-.087.246-.085.33.02.085.105.057.247-.048.333l-.112.092c.072-.06.372.232.535.435.742.924 1.115 2.107 1.116 3a5.32 5.32 0 0 1-.534-1.422c-.217-.958-.834-2.123-1.279-1.757-.444.365.627 1.01.887 1.827.213.666.727 1.204.908 1.38 0 .077-.005.15-.012.222.51-.269.96-.33 1.133-.116.127.159.078.434-.101.747.438.041.86.252 1.155.62.506.629 1.1 2.482 2.54 4.276 1.486 1.85 6.148 6.543 7.057 7.675 1.042 1.297 1.303 2.829.583 3.42l-.031.022c-.72.591-2.15.017-3.192-1.281-.909-1.132-4.498-6.713-5.983-8.563-1.442-1.794-3.105-2.754-3.61-3.383a1.72 1.72 0 0 1-.364-1.27c-.34.112-.616.104-.743-.054-.172-.215-.02-.647.345-1.098-.897-.096-2.103-.72-2.923-1.741-.162-.203-.383-.56-.311-.62l-.112.093a.245.245 0 0 1-.346-.037.252.252 0 0 1 .035-.35l-1.005.825c-.42.346-1.157.242-1.495-.179l-.246-.306c-.104-.13-.326-.083-.485.047-.202.166-.043.605-.084.638l-.016.013c.542.726.712 1.184.349 1.482-.278.228-.734.196-1.283-.037a.478.478 0 0 1-.173.255c-.737.606-2.596-.475-4.152-2.412-1.556-1.937-2.22-4-1.483-4.605zm1.943-.69zm0 0l-.006.004c0-.002.003-.002.005-.004zM17.063 5.79s-.944-1.733-2.112-3.253C13.783 1.015 12.658.303 12.658.303c2.095 1.92 4.406 5.487 4.406 5.487zm-4.82-3.748c.38-.26.84.498 1.95 1.553 1.338 1.69 2.666 3.543 2.647 3.46-.02-.09-1.314-2.458-2.566-4.016C13.025 1.48 11.547.134 11.547.134c-.076.006-.085.063-.042.16-.12-.014-.141.128-.233.251-.219.291-.207 1.384-.207 1.384.18.617.8.372 1.18.113zm-.184 1.683c.088-.073-.093-.445-.403-.83-.31-.387-.633-.642-.721-.57-.088.072.093.444.403.83.31.387.633.64.72.57zm-.776.346c.14-.115.091-.411-.11-.662-.2-.25-.477-.36-.618-.244-.14.115-.09.41.11.662.202.25.478.36.618.244zm4.81 11.275c-.15-.188-.362-.267-.473-.176-.11.09-.077.316.074.504.15.188.362.266.472.176.11-.09.077-.316-.074-.504zm1.307 3.232c1.382 1.556 2.767 2.82 5.851 6.99s3.729 4.987 4.13 4.658c.4-.329-1.018-2.12-1.977-3.285-.96-1.166-1.674-1.555-4.075-4.386-2.402-2.831-3.847-4.52-4.094-5.373-.245-.854-.494-1.072-.83-1.033-.443.05-.387.872.995 2.429zm-8.068-5.012s.209.145 2.354-1.617c2.101-1.726 1.816-1.808 1.816-1.808-.278.063-.645.028-.836-.21l-4.75-5.915c-.248-.308-.1-.845.164-1.127-.029.019-.003-.011-.03.011 0 0-.173-.174-2.324 1.593C3.47 6.348 3.643 6.522 3.643 6.522c-.027.022-.13.116-.154.14.329-.205.66-.062.908.246l4.75 5.915c.19.237.305.48.186.743zm-.205.644c.11-.223-1.144-1.753-2.244-3.122-1.1-1.368-3.015-3.985-3.223-3.816-.206.17 1.451 2.266 2.9 4.07 1.45 1.806 2.567 2.868 2.567 2.868zM4.316 9.797c.131-.108.075-.4-.126-.648-.201-.251-.471-.367-.602-.259-.132.108-.075.398.126.649.2.25.47.366.602.258zM2.98 11.184c-.09-.243-1.093-1.372-.891-1.59.113-.123.23-.03.36.136l.087.116c.077.106.159.227.249.338.027.032.051.057.073.08.267.34.558.704.835 1.05a21.844 21.844 0 0 0 1.61 1.816c.06-.134-.784-1.054-1.477-1.918-.324-.404-.813-.935-1.203-1.42l-.001-.002s-.51-.914-.781-.982c-.018-.01-.006-.035-.014-.028-.252.022-.635.469.042 1.311.677.843 1.2 1.336 1.111 1.093z"/></g><path fill="#bb9c66" d="M.294 9.213a.479.479 0 0 1 .283-.117c-.113-.59.003-.98.282-1.21.35-.287.762-.028 1.36.651l.012-.01c0 .003.002.01.016.027.186.233.449.277.681.087.16-.132.218-.38.113-.512l-.233-.289c-.338-.422-.018-.943.404-1.29l4.952-4.068c.42-.345.643-.268.98.153l.289.359c.073.09.434-.108.564-.214.231-.19.38-.52.194-.754-.024-.03.042-.073.036-.068l.017-.014c-.535-.73-.702-1.191-.352-1.48.278-.228.705-.23 1.253 0a.508.508 0 0 1 .158-.27c.737-.607 2.59.465 4.146 2.403 1.555 1.936 2.216 3.993 1.478 4.6a.484.484 0 0 1-.284.115c.112.59.053 1.052-.227 1.281-.362.298-.771.033-1.363-.65l-.016.013c-.04.032-.605-.07-.807.096-.129.106-.403.414-.33.504l.302.377c.202.251.38.473.303.767-.118-.468-1.537-2.39-2.848-4.022-1.45-1.804-2.536-2.89-2.536-2.89-.11.222 1.16 1.739 2.259 3.108 1.063 1.324 2.946 3.867 3.253 3.876-.06.156-.101.355-.239.467l-.951.783c.105-.087.246-.085.33.02.085.105.057.247-.048.333l-.112.092c.072-.06.372.232.535.435.742.924 1.115 2.107 1.116 3a5.32 5.32 0 0 1-.534-1.422c-.217-.958-.834-2.123-1.279-1.757-.444.365.627 1.01.887 1.827.213.666.727 1.204.908 1.38 0 .077-.005.15-.012.222.51-.269.96-.33 1.133-.116.127.159.078.434-.101.747.438.041.86.252 1.155.62.506.629 1.1 2.482 2.54 4.276 1.486 1.85 6.148 6.543 7.057 7.675 1.042 1.297 1.303 2.829.583 3.42l-.031.022c-.72.591-2.15.017-3.192-1.281-.909-1.132-4.498-6.713-5.983-8.563-1.442-1.794-3.105-2.754-3.61-3.383a1.72 1.72 0 0 1-.364-1.27c-.34.112-.616.104-.743-.054-.172-.215-.02-.647.345-1.098-.897-.096-2.103-.72-2.923-1.741-.162-.203-.383-.56-.311-.62l-.112.093a.245.245 0 0 1-.346-.037.252.252 0 0 1 .035-.35l-1.005.825c-.42.346-1.157.242-1.495-.179l-.246-.306c-.104-.13-.326-.083-.485.047-.202.166-.043.605-.084.638l-.016.013c.542.726.712 1.184.349 1.482-.278.228-.734.196-1.283-.037a.478.478 0 0 1-.173.255c-.737.606-2.596-.475-4.152-2.412-1.556-1.937-2.22-4-1.483-4.605zm1.943-.69zm0 0l-.006.004c0-.002.003-.002.005-.004zM17.063 5.79s-.944-1.733-2.112-3.253C13.783 1.015 12.658.303 12.658.303c2.095 1.92 4.406 5.487 4.406 5.487zm-4.82-3.748c.38-.26.84.498 1.95 1.553 1.338 1.69 2.666 3.543 2.647 3.46-.02-.09-1.314-2.458-2.566-4.016C13.025 1.48 11.547.134 11.547.134c-.076.006-.085.063-.042.16-.12-.014-.141.128-.233.251-.219.291-.207 1.384-.207 1.384.18.617.8.372 1.18.113zm-.184 1.683c.088-.073-.093-.445-.403-.83-.31-.387-.633-.642-.721-.57-.088.072.093.444.403.83.31.387.633.64.72.57zm-.776.346c.14-.115.091-.411-.11-.662-.2-.25-.477-.36-.618-.244-.14.115-.09.41.11.662.202.25.478.36.618.244zm4.81 11.275c-.15-.188-.362-.267-.473-.176-.11.09-.077.316.074.504.15.188.362.266.472.176.11-.09.077-.316-.074-.504zm1.307 3.232c1.382 1.556 2.767 2.82 5.851 6.99s3.729 4.987 4.13 4.658c.4-.329-1.018-2.12-1.977-3.285-.96-1.166-1.674-1.555-4.075-4.386-2.402-2.831-3.847-4.52-4.094-5.373-.245-.854-.494-1.072-.83-1.033-.443.05-.387.872.995 2.429zm-8.068-5.012s.209.145 2.354-1.617c2.101-1.726 1.816-1.808 1.816-1.808-.278.063-.645.028-.836-.21l-4.75-5.915c-.248-.308-.1-.845.164-1.127-.029.019-.003-.011-.03.011 0 0-.173-.174-2.324 1.593C3.47 6.348 3.643 6.522 3.643 6.522c-.027.022-.13.116-.154.14.329-.205.66-.062.908.246l4.75 5.915c.19.237.305.48.186.743zm-.205.644c.11-.223-1.144-1.753-2.244-3.122-1.1-1.368-3.015-3.985-3.223-3.816-.206.17 1.451 2.266 2.9 4.07 1.45 1.806 2.567 2.868 2.567 2.868zM4.316 9.797c.131-.108.075-.4-.126-.648-.201-.251-.471-.367-.602-.259-.132.108-.075.398.126.649.2.25.47.366.602.258zM2.98 11.184c-.09-.243-1.093-1.372-.891-1.59.113-.123.23-.03.36.136l.087.116c.077.106.159.227.249.338.027.032.051.057.073.08.267.34.558.704.835 1.05a21.844 21.844 0 0 0 1.61 1.816c.06-.134-.784-1.054-1.477-1.918-.324-.404-.813-.935-1.203-1.42l-.001-.002s-.51-.914-.781-.982c-.018-.01-.006-.035-.014-.028-.252.022-.635.469.042 1.311.677.843 1.2 1.336 1.111 1.093z"/><path fill="url(#9lykc)" d="M.294 9.213a.479.479 0 0 1 .283-.117c-.113-.59.003-.98.282-1.21.35-.287.762-.028 1.36.651l.012-.01c0 .003.002.01.016.027.186.233.449.277.681.087.16-.132.218-.38.113-.512l-.233-.289c-.338-.422-.018-.943.404-1.29l4.952-4.068c.42-.345.643-.268.98.153l.289.359c.073.09.434-.108.564-.214.231-.19.38-.52.194-.754-.024-.03.042-.073.036-.068l.017-.014c-.535-.73-.702-1.191-.352-1.48.278-.228.705-.23 1.253 0a.508.508 0 0 1 .158-.27c.737-.607 2.59.465 4.146 2.403 1.555 1.936 2.216 3.993 1.478 4.6a.484.484 0 0 1-.284.115c.112.59.053 1.052-.227 1.281-.362.298-.771.033-1.363-.65l-.016.013c-.04.032-.605-.07-.807.096-.129.106-.403.414-.33.504l.302.377c.202.251.38.473.303.767-.118-.468-1.537-2.39-2.848-4.022-1.45-1.804-2.536-2.89-2.536-2.89-.11.222 1.16 1.739 2.259 3.108 1.063 1.324 2.946 3.867 3.253 3.876-.06.156-.101.355-.239.467l-.951.783c.105-.087.246-.085.33.02.085.105.057.247-.048.333l-.112.092c.072-.06.372.232.535.435.742.924 1.115 2.107 1.116 3a5.32 5.32 0 0 1-.534-1.422c-.217-.958-.834-2.123-1.279-1.757-.444.365.627 1.01.887 1.827.213.666.727 1.204.908 1.38 0 .077-.005.15-.012.222.51-.269.96-.33 1.133-.116.127.159.078.434-.101.747.438.041.86.252 1.155.62.506.629 1.1 2.482 2.54 4.276 1.486 1.85 6.148 6.543 7.057 7.675 1.042 1.297 1.303 2.829.583 3.42l-.031.022c-.72.591-2.15.017-3.192-1.281-.909-1.132-4.498-6.713-5.983-8.563-1.442-1.794-3.105-2.754-3.61-3.383a1.72 1.72 0 0 1-.364-1.27c-.34.112-.616.104-.743-.054-.172-.215-.02-.647.345-1.098-.897-.096-2.103-.72-2.923-1.741-.162-.203-.383-.56-.311-.62l-.112.093a.245.245 0 0 1-.346-.037.252.252 0 0 1 .035-.35l-1.005.825c-.42.346-1.157.242-1.495-.179l-.246-.306c-.104-.13-.326-.083-.485.047-.202.166-.043.605-.084.638l-.016.013c.542.726.712 1.184.349 1.482-.278.228-.734.196-1.283-.037a.478.478 0 0 1-.173.255c-.737.606-2.596-.475-4.152-2.412-1.556-1.937-2.22-4-1.483-4.605zm1.943-.69zm0 0l-.006.004c0-.002.003-.002.005-.004zM17.063 5.79s-.944-1.733-2.112-3.253C13.783 1.015 12.658.303 12.658.303c2.095 1.92 4.406 5.487 4.406 5.487zm-4.82-3.748c.38-.26.84.498 1.95 1.553 1.338 1.69 2.666 3.543 2.647 3.46-.02-.09-1.314-2.458-2.566-4.016C13.025 1.48 11.547.134 11.547.134c-.076.006-.085.063-.042.16-.12-.014-.141.128-.233.251-.219.291-.207 1.384-.207 1.384.18.617.8.372 1.18.113zm-.184 1.683c.088-.073-.093-.445-.403-.83-.31-.387-.633-.642-.721-.57-.088.072.093.444.403.83.31.387.633.64.72.57zm-.776.346c.14-.115.091-.411-.11-.662-.2-.25-.477-.36-.618-.244-.14.115-.09.41.11.662.202.25.478.36.618.244zm4.81 11.275c-.15-.188-.362-.267-.473-.176-.11.09-.077.316.074.504.15.188.362.266.472.176.11-.09.077-.316-.074-.504zm1.307 3.232c1.382 1.556 2.767 2.82 5.851 6.99s3.729 4.987 4.13 4.658c.4-.329-1.018-2.12-1.977-3.285-.96-1.166-1.674-1.555-4.075-4.386-2.402-2.831-3.847-4.52-4.094-5.373-.245-.854-.494-1.072-.83-1.033-.443.05-.387.872.995 2.429zm-8.068-5.012s.209.145 2.354-1.617c2.101-1.726 1.816-1.808 1.816-1.808-.278.063-.645.028-.836-.21l-4.75-5.915c-.248-.308-.1-.845.164-1.127-.029.019-.003-.011-.03.011 0 0-.173-.174-2.324 1.593C3.47 6.348 3.643 6.522 3.643 6.522c-.027.022-.13.116-.154.14.329-.205.66-.062.908.246l4.75 5.915c.19.237.305.48.186.743zm-.205.644c.11-.223-1.144-1.753-2.244-3.122-1.1-1.368-3.015-3.985-3.223-3.816-.206.17 1.451 2.266 2.9 4.07 1.45 1.806 2.567 2.868 2.567 2.868zM4.316 9.797c.131-.108.075-.4-.126-.648-.201-.251-.471-.367-.602-.259-.132.108-.075.398.126.649.2.25.47.366.602.258zM2.98 11.184c-.09-.243-1.093-1.372-.891-1.59.113-.123.23-.03.36.136l.087.116c.077.106.159.227.249.338.027.032.051.057.073.08.267.34.558.704.835 1.05a21.844 21.844 0 0 0 1.61 1.816c.06-.134-.784-1.054-1.477-1.918-.324-.404-.813-.935-1.203-1.42l-.001-.002s-.51-.914-.781-.982c-.018-.01-.006-.035-.014-.028-.252.022-.635.469.042 1.311.677.843 1.2 1.336 1.111 1.093z"/><path fill="#f5d295" d="M0 33V11.199c.076.936.721 2.306 1.776 3.62 1.556 1.936 3.415 3.017 4.152 2.41a.478.478 0 0 0 .173-.254c.549.233 1.005.265 1.283.037.363-.298.193-.756-.349-1.482l.016-.013c.04-.033-.118-.472.084-.638.159-.13.38-.177.485-.047l.246.306c.338.421 1.074.525 1.495.18l1.005-.826a.252.252 0 0 0-.035.35c.084.105.24.124.346.037l.112-.092c-.072.06.149.416.311.619.82 1.021 2.026 1.645 2.923 1.74-.366.452-.517.884-.345 1.099.127.158.404.166.743.053-.05.443.069.904.364 1.271.505.63 2.168 1.59 3.61 3.383 1.485 1.85 5.074 7.431 5.983 8.563.663.826 1.484 1.359 2.178 1.485zM0-1h28v32.56c-.055-.67-.395-1.475-.982-2.206-.91-1.132-5.57-5.825-7.056-7.675-1.441-1.794-2.035-3.647-2.54-4.276a1.68 1.68 0 0 0-1.156-.62c.179-.313.228-.588.101-.747-.173-.215-.622-.153-1.133.116.007-.071.012-.145.012-.221-.181-.177-.695-.715-.908-1.381-.26-.817-1.331-1.462-.887-1.827.445-.366 1.063.799 1.279 1.757a5.32 5.32 0 0 0 .534 1.423c-.001-.894-.374-2.077-1.116-3.001-.163-.203-.463-.494-.535-.435l.112-.092c.105-.086.133-.228.048-.333-.084-.105-.225-.107-.33-.02l.951-.783c.138-.112.18-.311.24-.467-.308-.01-2.19-2.552-3.254-3.876-1.1-1.37-2.37-2.886-2.26-3.109 0 0 1.088 1.087 2.537 2.891 1.311 1.633 2.73 3.554 2.848 4.022.076-.294-.101-.516-.303-.767l-.302-.377c-.073-.09.201-.398.33-.504.202-.166.768-.064.807-.096l.016-.014c.592.684 1.001.949 1.363.651.28-.23.339-.69.227-1.28a.484.484 0 0 0 .284-.116c.738-.607.077-2.664-1.478-4.6-1.556-1.938-3.409-3.01-4.146-2.404a.508.508 0 0 0-.158.272c-.548-.232-.975-.229-1.253 0-.35.288-.183.748.352 1.479l-.017.014c.006-.005-.06.039-.036.068.187.233.037.564-.194.754-.13.106-.491.305-.564.214l-.288-.359c-.338-.42-.56-.498-.981-.153L3.212 7.551c-.422.346-.742.867-.404 1.289l.233.29c.105.13.047.38-.113.51-.232.192-.495.147-.68-.086-.015-.018-.018-.024-.017-.027l-.013.01c-.597-.68-1.01-.938-1.36-.65-.278.228-.394.618-.281 1.209a.479.479 0 0 0-.283.117c-.172.14-.268.36-.294.638zm28 34h-.858c.16-.035.304-.102.428-.204l.031-.022c.236-.194.367-.488.399-.842zM2.236 9.523zm-.005.004l.005-.004-.005.004zM17.064 6.79c-.014-.022-2.317-3.572-4.406-5.487 0 0 1.125.712 2.294 2.234 1.163 1.513 2.104 3.238 2.112 3.253zm-4.82-3.748c-.38.259-1 .504-1.179-.113 0 0-.012-1.093.207-1.384.092-.123.113-.265.233-.251-.043-.097-.034-.154.042-.16 0 0 1.477 1.346 2.728 2.905 1.252 1.558 2.547 3.926 2.566 4.015.019.084-1.309-1.769-2.648-3.459-1.108-1.055-1.569-1.812-1.949-1.553zm-.905 1.114c-.31-.387-.491-.759-.403-.83.088-.073.41.182.72.568.31.386.492.758.404.83-.088.072-.41-.182-.721-.568zm-.055.915c-.14.116-.416.006-.617-.244-.202-.251-.251-.547-.111-.662.14-.116.417-.006.618.244s.25.547.11.662zm4.81 11.275c.15.188.183.413.073.504-.11.09-.321.012-.472-.176-.151-.188-.184-.413-.074-.504.11-.09.322-.012.472.176zm1.307 3.232c-1.382-1.557-1.438-2.38-.994-2.43.335-.038.584.18.83 1.034.246.853 1.691 2.542 4.093 5.373 2.401 2.831 3.116 3.22 4.075 4.386.959 1.165 2.377 2.956 1.976 3.285-.4.33-1.045-.488-4.129-4.658-3.084-4.17-4.47-5.434-5.85-6.99zm-8.068-5.012c.12-.263.005-.506-.186-.743l-4.75-5.915c-.247-.308-.58-.451-.908-.246.024-.024.127-.118.154-.14 0 0-.173-.174 2.084-2.029C7.877 3.726 8.051 3.9 8.051 3.9c.027-.022.001.008.03-.011-.265.282-.412.819-.165 1.127l4.75 5.915c.192.238.56.273.837.21 0 0 .285.082-1.816 1.808-2.145 1.762-2.354 1.617-2.354 1.617zm-2.771-2.224c-1.45-1.804-3.107-3.9-2.9-4.07.207-.17 2.123 2.448 3.222 3.816 1.1 1.37 2.355 2.9 2.244 3.122 0 0-1.117-1.062-2.566-2.868zM3.714 10.54c-.201-.25-.258-.541-.126-.649.131-.108.4.008.602.259.201.249.257.54.126.648-.131.108-.401-.008-.602-.258zm-.734 1.645c.09.243-.434-.25-1.111-1.093-.677-.842-.294-1.29-.042-1.31.008-.008-.004.018.014.027.271.068.78.982.78.982l.002.001c.39.486.88 1.017 1.203 1.42.693.865 1.537 1.785 1.477 1.919 0 0-.696-.677-1.61-1.815-.277-.347-.568-.71-.835-1.051a1.264 1.264 0 0 1-.073-.08c-.09-.11-.172-.232-.249-.338l-.087-.116c-.13-.165-.247-.26-.36-.136-.202.218.801 1.347.891 1.59zM0 11.2v-.348c-.01.107-.01.224 0 .348zM28 31.56v.372c.01-.118.01-.242 0-.372zM27.142 33h-.586c.21.038.407.039.586 0z" filter="url(#9lykd)" mask="url(&quot;#9lyke&quot;)"/></g></g></svg>